<svg width="64" height="64" viewBox="0 0 64 64" fill="none" xmlns="http://www.w3.org/2000/svg">
<g clip-path="url(#clip0_2589_574)">
<path d="M2 0H0V2H2V0Z" fill="#453E78"/>
<path d="M4 0H2V2H4V0Z" fill="#453E78"/>
<path d="M2 2H0V4H2V2Z" fill="#453E78"/>
<path d="M4 2H2V4H4V2Z" fill="#7664FE"/>
<path d="M6 2H4V4H6V2Z" fill="#453E78"/>
<path d="M4 4H2V6H4V4Z" fill="#453E78"/>
<path d="M6 4H4V6H6V4Z" fill="#7664FE"/>
<path d="M8 4H6V6H8V4Z" fill="#453E78"/>
<path d="M6 6H4V8H6V6Z" fill="#453E78"/>
<path d="M8 6H6V8H8V6Z" fill="#7664FE"/>
<path d="M10 6H8V8H10V6Z" fill="#453E78"/>
<path d="M8 8H6V10H8V8Z" fill="#453E78"/>
<path d="M10 8H8V10H10V8Z" fill="#453E78"/>
<path d="M12 8H10V10H12V8Z" fill="#D6B97B"/>
<path d="M10 10H8V12H10V10Z" fill="#D6B97B"/>
<path d="M12 10H10V12H12V10Z" fill="#E9D8A1"/>
<path d="M14 10H12V12H14V10Z" fill="#D6B97B"/>
<path d="M12 12H10V14H12V12Z" fill="#D6B97B"/>
<path d="M14 12H12V14H14V12Z" fill="#E9D8A1"/>
<path d="M14 14H12V16H14V14Z" fill="#D6B97B"/>
<path d="M16 14H14V16H16V14Z" fill="#E9D8A1"/>
<path d="M18 14H16V16H18V14Z" fill="#D6B97B"/>
<path d="M14 16H12V18H14V16Z" fill="#D6B97B"/>
<path d="M16 16H14V18H16V16Z" fill="#D6B97B"/>
<path d="M18 16H16V18H18V16Z" fill="#E9D8A1"/>
<path d="M20 16H18V18H20V16Z" fill="#D6B97B"/>
<path d="M54 16H52V18H54V16Z" fill="#AFAAB9"/>
<path d="M56 16H54V18H56V16Z" fill="#AFAAB9"/>
<path d="M16 18H14V20H16V18Z" fill="#D6B97B"/>
<path d="M18 18H16V20H18V18Z" fill="#D6B97B"/>
<path d="M20 18H18V20H20V18Z" fill="#AFAAB9"/>
<path d="M22 18H20V20H22V18Z" fill="#AFAAB9"/>
<path d="M54 18H52V20H54V18Z" fill="#D6B97B"/>
<path d="M56 18H54V20H56V18Z" fill="#E9D8A1"/>
<path d="M18 20H16V22H18V20Z" fill="#AFAAB9"/>
<path d="M20 20H18V22H20V20Z" fill="#AFAAB9"/>
<path d="M22 20H20V22H22V20Z" fill="#E9D8A1"/>
<path d="M24 20H22V22H24V20Z" fill="#E9D8A1"/>
<path d="M46 20H44V22H46V20Z" fill="#AFAAB9"/>
<path d="M48 20H46V22H48V20Z" fill="#AFAAB9"/>
<path d="M50 20H48V22H50V20Z" fill="#D6B97B"/>
<path d="M56 20H54V22H56V20Z" fill="#E9D8A1"/>
<path d="M58 20H56V22H58V20Z" fill="#D6B97B"/>
<path d="M20 22H18V24H20V22Z" fill="#D6B97B"/>
<path d="M22 22H20V24H22V22Z" fill="#D6B97B"/>
<path d="M24 22H22V24H24V22Z" fill="#D6B97B"/>
<path d="M26 22H24V24H26V22Z" fill="#E9D8A1"/>
<path d="M46 22H44V24H46V22Z" fill="#D6B97B"/>
<path d="M48 22H46V24H48V22Z" fill="#E9D8A1"/>
<path d="M50 22H48V24H50V22Z" fill="#D6B97B"/>
<path d="M58 22H56V24H58V22Z" fill="#D6B97B"/>
<path d="M24 24H22V26H24V24Z" fill="#D6B97B"/>
<path d="M26 24H24V26H26V24Z" fill="#E9D8A1"/>
<path d="M28 24H26V26H28V24Z" fill="#D6B97B"/>
<path d="M30 24H28V26H30V24Z" fill="#D6B97B"/>
<path d="M38 24H36V26H38V24Z" fill="#D6B97B"/>
<path d="M40 24H38V26H40V24Z" fill="#AFAAB9"/>
<path d="M48 24H46V26H48V24Z" fill="#E9D8A1"/>
<path d="M50 24H48V26H50V24Z" fill="#E9D8A1"/>
<path d="M58 24H56V26H58V24Z" fill="#E9D8A1"/>
<path d="M60 24H58V26H60V24Z" fill="#D6B97B"/>
<path d="M26 26H24V28H26V26Z" fill="#D6B97B"/>
<path d="M28 26H26V28H28V26Z" fill="#E9D8A1"/>
<path d="M30 26H28V28H30V26Z" fill="#D6B97B"/>
<path d="M32 26H30V28H32V26Z" fill="#D6B97B"/>
<path d="M36 26H34V28H36V26Z" fill="#D6B97B"/>
<path d="M38 26H36V28H38V26Z" fill="#AFAAB9"/>
<path d="M40 26H38V28H40V26Z" fill="#D6B97B"/>
<path d="M42 26H40V28H42V26Z" fill="#D6B97B"/>
<path d="M50 26H48V28H50V26Z" fill="#E9D8A1"/>
<path d="M52 26H50V28H52V26Z" fill="#D6B97B"/>
<path d="M58 26H56V28H58V26Z" fill="#E9D8A1"/>
<path d="M60 26H58V28H60V26Z" fill="#D6B97B"/>
<path d="M28 28H26V30H28V28Z" fill="#D6B97B"/>
<path d="M30 28H28V30H30V28Z" fill="#AFAAB9"/>
<path d="M32 28H30V30H32V28Z" fill="#AFAAB9"/>
<path d="M34 28H32V30H34V28Z" fill="#AFAAB9"/>
<path d="M38 28H36V30H38V28Z" fill="#D6B97B"/>
<path d="M40 28H38V30H40V28Z" fill="#D6B97B"/>
<path d="M42 28H40V30H42V28Z" fill="#E9D8A1"/>
<path d="M44 28H42V30H44V28Z" fill="#D6B97B"/>
<path d="M52 28H50V30H52V28Z" fill="#E9D8A1"/>
<path d="M54 28H52V30H54V28Z" fill="#D6B97B"/>
<path d="M58 28H56V30H58V28Z" fill="#E9D8A1"/>
<path d="M60 28H58V30H60V28Z" fill="#D6B97B"/>
<path d="M28 30H26V32H28V30Z" fill="#AFAAB9"/>
<path d="M30 30H28V32H30V30Z" fill="#AFAAB9"/>
<path d="M32 30H30V32H32V30Z" fill="#E9D8A1"/>
<path d="M42 30H40V32H42V30Z" fill="#E9D8A1"/>
<path d="M44 30H42V32H44V30Z" fill="#D6B97B"/>
<path d="M54 30H52V32H54V30Z" fill="#E9D8A1"/>
<path d="M60 30H58V32H60V30Z" fill="#D6B97B"/>
<path d="M30 32H28V34H30V32Z" fill="#D6B97B"/>
<path d="M32 32H30V34H32V32Z" fill="#D6B97B"/>
<path d="M34 32H32V34H34V32Z" fill="#E9D8A1"/>
<path d="M36 32H34V34H36V32Z" fill="#D6B97B"/>
<path d="M44 32H42V34H44V32Z" fill="#D6B97B"/>
<path d="M46 32H44V34H46V32Z" fill="#D6B97B"/>
<path d="M54 32H52V34H54V32Z" fill="#E9D8A1"/>
<path d="M56 32H54V34H56V32Z" fill="#D6B97B"/>
<path d="M60 32H58V34H60V32Z" fill="#D6B97B"/>
<path d="M62 32H60V34H62V32Z" fill="#D6B97B"/>
<path d="M32 34H30V36H32V34Z" fill="#D6B97B"/>
<path d="M34 34H32V36H34V34Z" fill="#E9D8A1"/>
<path d="M36 34H34V36H36V34Z" fill="#E9D8A1"/>
<path d="M38 34H36V36H38V34Z" fill="#D6B97B"/>
<path d="M46 34H44V36H46V34Z" fill="#E9D8A1"/>
<path d="M48 34H46V36H48V34Z" fill="#D6B97B"/>
<path d="M54 34H52V36H54V34Z" fill="#AFAAB9"/>
<path d="M56 34H54V36H56V34Z" fill="#D6B97B"/>
<path d="M62 34H60V36H62V34Z" fill="#D6B97B"/>
<path d="M36 36H34V38H36V36Z" fill="#E9D8A1"/>
<path d="M38 36H36V38H38V36Z" fill="#E9D8A1"/>
<path d="M40 36H38V38H40V36Z" fill="#D6B97B"/>
<path d="M48 36H46V38H48V36Z" fill="#D6B97B"/>
<path d="M56 36H54V38H56V36Z" fill="#E9D8A1"/>
<path d="M60 36H58V38H60V36Z" fill="#E9D8A1"/>
<path d="M62 36H60V38H62V36Z" fill="#D6B97B"/>
<path d="M38 38H36V40H38V38Z" fill="#E9D8A1"/>
<path d="M40 38H38V40H40V38Z" fill="#D6B97B"/>
<path d="M42 38H40V40H42V38Z" fill="#D6B97B"/>
<path d="M50 38H48V40H50V38Z" fill="#E9D8A1"/>
<path d="M56 38H54V40H56V38Z" fill="#AFAAB9"/>
<path d="M62 38H60V40H62V38Z" fill="#D6B97B"/>
<path d="M64 38H62V40H64V38Z" fill="#D6B97B"/>
<path d="M38 40H36V42H38V40Z" fill="#D6B97B"/>
<path d="M40 40H38V42H40V40Z" fill="#E9D8A1"/>
<path d="M42 40H40V42H42V40Z" fill="#E9D8A1"/>
<path d="M50 40H48V42H50V40Z" fill="#E9D8A1"/>
<path d="M52 40H50V42H52V40Z" fill="#D6B97B"/>
<path d="M58 40H56V42H58V40Z" fill="#E9D8A1"/>
<path d="M64 40H62V42H64V40Z" fill="#D6B97B"/>
<path d="M34 42H32V44H34V42Z" fill="#AFAAB9"/>
<path d="M40 42H38V44H40V42Z" fill="#D6B97B"/>
<path d="M42 42H40V44H42V42Z" fill="#E9D8A1"/>
<path d="M44 42H42V44H44V42Z" fill="#AFAAB9"/>
<path d="M52 42H50V44H52V42Z" fill="#D6B97B"/>
<path d="M60 42H58V44H60V42Z" fill="#AFAAB9"/>
<path d="M64 42H62V44H64V42Z" fill="#D6B97B"/>
<path d="M30 44H28V46H30V44Z" fill="#D6B97B"/>
<path d="M32 44H30V46H32V44Z" fill="#AFAAB9"/>
<path d="M34 44H32V46H34V44Z" fill="#AFAAB9"/>
<path d="M42 44H40V46H42V44Z" fill="#D6B97B"/>
<path d="M44 44H42V46H44V44Z" fill="#E9D8A1"/>
<path d="M46 44H44V46H46V44Z" fill="#E9D8A1"/>
<path d="M54 44H52V46H54V44Z" fill="#D6B97B"/>
<path d="M56 44H54V46H56V44Z" fill="#E9D8A1"/>
<path d="M60 44H58V46H60V44Z" fill="#E9D8A1"/>
<path d="M64 44H62V46H64V44Z" fill="#D6B97B"/>
<path d="M28 46H26V48H28V46Z" fill="#E9D8A1"/>
<path d="M30 46H28V48H30V46Z" fill="#AFAAB9"/>
<path d="M32 46H30V48H32V46Z" fill="#AFAAB9"/>
<path d="M44 46H42V48H44V46Z" fill="#D6B97B"/>
<path d="M46 46H44V48H46V46Z" fill="#E9D8A1"/>
<path d="M48 46H46V48H48V46Z" fill="#E9D8A1"/>
<path d="M54 46H52V48H54V46Z" fill="#AFAAB9"/>
<path d="M56 46H54V48H56V46Z" fill="#E9D8A1"/>
<path d="M60 46H58V48H60V46Z" fill="#E9D8A1"/>
<path d="M62 46H60V48H62V46Z" fill="#D6B97B"/>
<path d="M64 46H62V48H64V46Z" fill="#D6B97B"/>
<path d="M28 48H26V50H28V48Z" fill="#E9D8A1"/>
<path d="M30 48H28V50H30V48Z" fill="#E9D8A1"/>
<path d="M32 48H30V50H32V48Z" fill="#E9D8A1"/>
<path d="M46 48H44V50H46V48Z" fill="#D6B97B"/>
<path d="M48 48H46V50H48V48Z" fill="#E9D8A1"/>
<path d="M50 48H48V50H50V48Z" fill="#E9D8A1"/>
<path d="M52 48H50V50H52V48Z" fill="#D6B97B"/>
<path d="M54 48H52V50H54V48Z" fill="#AFAAB9"/>
<path d="M56 48H54V50H56V48Z" fill="#AFAAB9"/>
<path d="M58 48H56V50H58V48Z" fill="#E9D8A1"/>
<path d="M60 48H58V50H60V48Z" fill="#E9D8A1"/>
<path d="M62 48H60V50H62V48Z" fill="#E9D8A1"/>
<path d="M64 48H62V50H64V48Z" fill="#E9D8A1"/>
<path d="M26 50H24V52H26V50Z" fill="#AFAAB9"/>
<path d="M28 50H26V52H28V50Z" fill="#AFAAB9"/>
<path d="M30 50H28V52H30V50Z" fill="#AFAAB9"/>
<path d="M32 50H30V52H32V50Z" fill="#E9D8A1"/>
<path d="M48 50H46V52H48V50Z" fill="#D6B97B"/>
<path d="M50 50H48V52H50V50Z" fill="#D6B97B"/>
<path d="M52 50H50V52H52V50Z" fill="#D6B97B"/>
<path d="M54 50H52V52H54V50Z" fill="#E9D8A1"/>
<path d="M56 50H54V52H56V50Z" fill="#E9D8A1"/>
<path d="M58 50H56V52H58V50Z" fill="#AFAAB9"/>
<path d="M60 50H58V52H60V50Z" fill="#AFAAB9"/>
<path d="M62 50H60V52H62V50Z" fill="#E9D8A1"/>
<path d="M64 50H62V52H64V50Z" fill="#E9D8A1"/>
<path d="M30 52H28V54H30V52Z" fill="#AFAAB9"/>
<path d="M32 52H30V54H32V52Z" fill="#AFAAB9"/>
<path d="M34 52H32V54H34V52Z" fill="#E9D8A1"/>
<path d="M36 52H34V54H36V52Z" fill="#E9D8A1"/>
<path d="M38 52H36V54H38V52Z" fill="#D6B97B"/>
<path d="M50 52H48V54H50V52Z" fill="#D6B97B"/>
<path d="M52 52H50V54H52V52Z" fill="#D6B97B"/>
<path d="M54 52H52V54H54V52Z" fill="#AFAAB9"/>
<path d="M56 52H54V54H56V52Z" fill="#AFAAB9"/>
<path d="M58 52H56V54H58V52Z" fill="#AFAAB9"/>
<path d="M60 52H58V54H60V52Z" fill="#E9D8A1"/>
<path d="M62 52H60V54H62V52Z" fill="#E9D8A1"/>
<path d="M64 52H62V54H64V52Z" fill="#E9D8A1"/>
<path d="M32 54H30V56H32V54Z" fill="#D6B97B"/>
<path d="M34 54H32V56H34V54Z" fill="#D6B97B"/>
<path d="M36 54H34V56H36V54Z" fill="#E9D8A1"/>
<path d="M38 54H36V56H38V54Z" fill="#E9D8A1"/>
<path d="M40 54H38V56H40V54Z" fill="#E9D8A1"/>
<path d="M56 54H54V56H56V54Z" fill="#E9D8A1"/>
<path d="M58 54H56V56H58V54Z" fill="#E9D8A1"/>
<path d="M60 54H58V56H60V54Z" fill="#E9D8A1"/>
<path d="M62 54H60V56H62V54Z" fill="#E9D8A1"/>
<path d="M64 54H62V56H64V54Z" fill="#E9D8A1"/>
<path d="M36 56H34V58H36V56Z" fill="#D6B97B"/>
<path d="M38 56H36V58H38V56Z" fill="#E9D8A1"/>
<path d="M40 56H38V58H40V56Z" fill="#E9D8A1"/>
<path d="M54 56H52V58H54V56Z" fill="#AFAAB9"/>
<path d="M56 56H54V58H56V56Z" fill="#E9D8A1"/>
<path d="M58 56H56V58H58V56Z" fill="#E9D8A1"/>
<path d="M60 56H58V58H60V56Z" fill="#E9D8A1"/>
<path d="M62 56H60V58H62V56Z" fill="#E9D8A1"/>
<path d="M64 56H62V58H64V56Z" fill="#E9D8A1"/>
<path d="M42 58H40V60H42V58Z" fill="#E9D8A1"/>
<path d="M44 58H42V60H44V58Z" fill="#E9D8A1"/>
<path d="M54 58H52V60H54V58Z" fill="#AFAAB9"/>
<path d="M56 58H54V60H56V58Z" fill="#AFAAB9"/>
<path d="M58 58H56V60H58V58Z" fill="#E9D8A1"/>
<path d="M60 58H58V60H60V58Z" fill="#E9D8A1"/>
<path d="M62 58H60V60H62V58Z" fill="#E9D8A1"/>
<path d="M64 58H62V60H64V58Z" fill="#D6B97B"/>
<path d="M44 60H42V62H44V60Z" fill="#E9D8A1"/>
<path d="M46 60H44V62H46V60Z" fill="#E9D8A1"/>
<path d="M48 60H46V62H48V60Z" fill="#E9D8A1"/>
<path d="M50 60H48V62H50V60Z" fill="#E9D8A1"/>
<path d="M52 60H50V62H52V60Z" fill="#E9D8A1"/>
<path d="M54 60H52V62H54V60Z" fill="#E9D8A1"/>
<path d="M56 60H54V62H56V60Z" fill="#AFAAB9"/>
<path d="M58 60H56V62H58V60Z" fill="#E9D8A1"/>
<path d="M60 60H58V62H60V60Z" fill="#E9D8A1"/>
<path d="M62 60H60V62H62V60Z" fill="#D6B97B"/>
<path d="M64 60H62V62H64V60Z" fill="#D6B97B"/>
<path d="M50 62H48V64H50V62Z" fill="#E9D8A1"/>
<path d="M52 62H50V64H52V62Z" fill="#D6B97B"/>
<path d="M54 62H52V64H54V62Z" fill="#D6B97B"/>
<path d="M56 62H54V64H56V62Z" fill="#D6B97B"/>
<path d="M58 62H56V64H58V62Z" fill="#D6B97B"/>
<path d="M60 62H58V64H60V62Z" fill="#D6B97B"/>
<path d="M62 62H60V64H62V62Z" fill="#D6B97B"/>
</g>
<defs>
<clipPath id="clip0_2589_574">
<rect width="64" height="64" fill="white"/>
</clipPath>
</defs>
</svg>
